<svg t="1730103202401" class="icon" viewBox="0 0 1024 1024" version="1.1" xmlns="http://www.w3.org/2000/svg" p-id="2855" width="26" height="26" data-spm-anchor-id="a313x.search_index.0.i4.117c3a81c4uqdO"><path d="M448 192c140.8 0 256 115.2 256 256 0 57.6-19.2 115.2-54.4 156.8l160 160c12.8 12.8 12.8 32 0 44.8s-28.8 12.8-41.6 3.2l-3.2-3.2-160-160C563.2 684.8 505.6 704 448 704c-140.8 0-256-115.2-256-256s115.2-256 256-256z m0 64c-105.6 0-192 86.4-192 192s86.4 192 192 192 192-86.4 192-192-86.4-192-192-192z" fill="#13c798" p-id="2856" data-spm-anchor-id="a313x.search_index.0.i6.117c3a81c4uqdO" class="selected"></path><path d="M336 416c19.2 0 32 12.8 32 32 0 41.6 32 76.8 73.6 80h6.4c19.2 0 32 12.8 32 32s-12.8 32-32 32c-80 0-144-64-144-144 0-19.2 12.8-32 32-32z" fill="#13c798" p-id="2857" data-spm-anchor-id="a313x.search_index.0.i7.117c3a81c4uqdO" class="selected"></path></svg>